<svg width="127" height="25" viewBox="0 0 127 25" fill="none" xmlns="http://www.w3.org/2000/svg">
<path d="M13.4566 17.1072C13.3695 16.9934 13.3865 16.9095 13.3969 16.8321C13.4696 16.2625 13.2356 15.8365 12.7644 15.5428C12.1206 15.1418 11.4058 14.9006 10.6885 14.6707C9.54614 14.3044 8.43599 13.8711 7.45816 13.1539C7.04912 12.8538 6.73447 12.4762 6.48517 12.0397C6.20522 11.5508 6.2383 11.0546 6.49566 10.577C6.66751 10.2583 6.87969 9.9574 7.1653 9.72585C7.92852 9.10624 8.52716 8.35915 8.95557 7.4741C9.01204 7.35712 9.04351 7.21754 9.18631 7.13202C9.32185 7.26272 9.27102 7.43296 9.26618 7.57898C9.24278 8.24459 9.33395 8.89567 9.54452 9.52335C9.89467 10.5673 10.6635 11.2345 11.6059 11.7331C12.3054 12.1035 13.0169 12.4528 13.6341 12.9619C14.2102 13.4371 14.5684 14.0285 14.6596 14.7715C14.7039 15.1305 14.5724 15.4629 14.4474 15.7873C14.2465 16.3101 13.9125 16.7385 13.4583 17.1072H13.4566Z" fill="#FF5722"/>
<path d="M10.6797 10.794C10.812 10.385 10.9217 10.0429 10.979 9.68713C11.1533 8.60683 10.904 7.64675 10.2303 6.77865C9.63408 6.01139 8.84504 5.50392 7.9858 5.11989C6.48033 4.44703 5.06684 3.63136 3.79856 2.58173C3.08213 1.98793 2.47059 1.29006 2.05993 0.4397C1.99942 0.314648 1.9131 0.183141 1.997 0C2.39072 0.230742 2.74409 0.492949 3.12812 0.705941C4.14548 1.2715 5.23223 1.63698 6.35609 1.92097C7.6171 2.23965 8.90877 2.45183 10.1173 2.95931C10.7265 3.21506 11.3154 3.5047 11.7898 3.98151C12.3562 4.5511 12.6369 5.23768 12.67 6.03882C12.7273 7.42166 12.2521 8.64556 11.5671 9.80895C11.4308 10.0397 11.2711 10.2575 11.117 10.477C11.0258 10.6061 10.9306 10.7376 10.6805 10.7932L10.6797 10.794Z" fill="#FF5722"/>
<path d="M22.4766 5.73386C22.4362 6.07109 22.295 6.31716 22.1716 6.56001C21.2583 8.35754 19.9634 9.79524 18.1401 10.7037C16.946 11.2991 15.6794 11.6154 14.3336 11.6049C13.4841 11.5984 12.6418 11.5702 11.8269 11.2999C11.7503 11.2749 11.6736 11.2491 11.5994 11.2176C11.4122 11.1385 11.3574 11.0369 11.4994 10.8497C11.7842 10.4746 12.027 10.0712 12.2513 9.65808C12.7168 8.80127 13.0242 7.89202 13.0968 6.88676C13.2848 6.93436 13.3332 7.0812 13.4042 7.19899C14.1634 8.45597 15.5099 9.04734 16.9484 8.81418C18.6249 8.54148 20.0062 7.68871 21.3172 6.68183C21.6972 6.38978 22.0603 6.07593 22.4766 5.73466V5.73386Z" fill="#FF5722"/>
<path d="M8.00113 24.0189C7.86156 23.4397 7.9261 22.8967 7.95515 22.3465C8.00033 21.4816 8.15604 20.6409 8.38597 19.8115C8.69336 18.7054 9.22503 17.7179 10.052 16.9135C10.5869 16.394 11.2154 16.0116 11.9294 15.7719C12.1456 15.6993 12.3134 15.7364 12.4925 15.8623C12.9895 16.2116 13.1767 16.7893 12.9572 17.3516C12.8177 17.709 12.5853 18.0011 12.3054 18.2593C11.1299 19.3428 9.94711 20.4174 9.10321 21.8035C8.73854 22.4029 8.45778 23.0395 8.18831 23.6825C8.14313 23.7898 8.14797 23.9229 7.99871 24.0189H8.00113Z" fill="#FF5722"/>
<path d="M0.0582852 24.9992C-0.0119055 24.9153 -0.00383759 24.8467 0.00745747 24.7814C0.312424 23.054 0.769874 21.3775 1.6517 19.8422C2.3052 18.7046 3.1491 17.7502 4.31007 17.108C4.84416 16.8127 5.42182 16.6417 6.02208 16.54C6.22216 16.5061 6.30123 16.5941 6.27299 16.7853C6.26169 16.8643 6.23588 16.9418 6.21087 17.0184C6.05031 17.5033 5.8462 17.9704 5.65257 18.4424C5.34115 19.2008 4.82964 19.7793 4.16485 20.2488C3.5291 20.6982 2.93691 21.2113 2.39394 21.764C1.56537 22.6079 0.844905 23.5454 0.319685 24.6168C0.255142 24.7483 0.19544 24.8822 0.0582852 25V24.9992Z" fill="#FF5722"/>
<path d="M11.927 2.39778C11.9383 1.89192 12.0367 1.43044 12.4119 1.06496C12.8209 0.667215 13.3074 0.615581 13.8092 0.899571C14.3796 1.22309 14.6507 1.75557 14.8161 2.34615C14.9468 2.81408 14.971 3.29735 14.7991 3.77336C14.6805 4.0993 14.4998 4.37684 14.2078 4.56482C13.6527 4.92223 13.0573 4.73263 12.5692 4.1711C12.1359 3.67251 11.9302 3.05854 11.927 2.39697V2.39778Z" fill="#FF5722"/>
<path d="M7.10318 13.4702C7.82203 13.9768 8.52716 14.2947 9.26941 14.5392C9.61713 14.6537 9.64779 14.7304 9.48321 15.024C8.68932 16.444 7.7002 17.6985 6.36658 18.6554C6.23588 18.749 6.09711 18.8305 5.96076 18.916C5.92768 18.937 5.89138 18.9523 5.80263 18.8918C6.6312 17.2169 7.04347 15.4202 7.10318 13.471V13.4702Z" fill="#FF5722"/>
<path d="M43.5503 12.2788V18.0928C43.3315 18.373 42.9863 18.6772 42.5146 19.0054C42.0498 19.3335 41.4414 19.6172 40.6895 19.8564C39.9375 20.0889 39.0146 20.2051 37.9209 20.2051C36.9707 20.2051 36.1025 20.0479 35.3164 19.7334C34.5303 19.4121 33.8535 18.9438 33.2861 18.3286C32.7188 17.7134 32.2812 16.9614 31.9736 16.0728C31.666 15.1841 31.5122 14.1689 31.5122 13.0273V12.043C31.5122 10.9014 31.6558 9.88623 31.9429 8.99756C32.2368 8.10889 32.6538 7.35693 33.1938 6.7417C33.7407 6.12646 34.3936 5.6582 35.1523 5.33691C35.918 5.01563 36.7725 4.85498 37.7158 4.85498C38.9805 4.85498 40.0195 5.06348 40.833 5.48047C41.6533 5.89746 42.2822 6.47168 42.7197 7.20312C43.1572 7.92773 43.4307 8.76172 43.54 9.70508H40.792C40.7168 9.18555 40.5664 8.73096 40.3408 8.34131C40.1152 7.94482 39.7939 7.63721 39.377 7.41846C38.9668 7.19287 38.4336 7.08008 37.7773 7.08008C37.2236 7.08008 36.7349 7.18945 36.311 7.4082C35.8872 7.62695 35.5317 7.94482 35.2446 8.36182C34.9575 8.77881 34.7388 9.29492 34.5884 9.91016C34.4448 10.5254 34.373 11.2295 34.373 12.0225V13.0273C34.373 13.8271 34.4551 14.5381 34.6191 15.1602C34.7832 15.7754 35.019 16.2949 35.3267 16.7188C35.6411 17.1357 36.0273 17.4536 36.4854 17.6724C36.9502 17.8843 37.4766 17.9902 38.0645 17.9902C38.5977 17.9902 39.0386 17.9458 39.3872 17.8569C39.7427 17.7612 40.0264 17.6484 40.2383 17.5186C40.4502 17.3887 40.6143 17.2622 40.7305 17.1392V14.3398H37.7671V12.2788H43.5503ZM49.2617 18.7695L52.2354 8.90527H55.1372L50.687 21.6816C50.5845 21.9551 50.4512 22.2524 50.2871 22.5737C50.1299 22.895 49.918 23.1992 49.6514 23.4863C49.3848 23.7803 49.0498 24.0195 48.6465 24.2041C48.25 24.3887 47.7681 24.481 47.2007 24.481C46.9546 24.481 46.7358 24.4639 46.5444 24.4297C46.353 24.3955 46.1514 24.3511 45.9395 24.2964V22.2661C46.0078 22.2729 46.0864 22.2764 46.1753 22.2764C46.271 22.2832 46.353 22.2866 46.4214 22.2866C46.8179 22.2866 47.146 22.2388 47.4058 22.1431C47.6655 22.0542 47.874 21.9072 48.0312 21.7021C48.1953 21.5039 48.332 21.2441 48.4414 20.9229L49.2617 18.7695ZM47.7954 8.90527L50.3076 17.0776L50.7485 19.9385L48.8823 20.2769L44.873 8.90527H47.7954ZM59.1465 11.1816V20H56.4395V8.90527H58.9927L59.1465 11.1816ZM58.7466 14.0527H57.916C57.916 13.2803 58.0083 12.5693 58.1929 11.9199C58.3843 11.2705 58.6646 10.7065 59.0337 10.228C59.4028 9.74268 59.8574 9.3667 60.3975 9.1001C60.9443 8.8335 61.5767 8.7002 62.2944 8.7002C62.7935 8.7002 63.2515 8.77539 63.6685 8.92578C64.0854 9.06934 64.4443 9.29834 64.7451 9.61279C65.0527 9.92041 65.2886 10.3237 65.4526 10.8228C65.6167 11.3149 65.6987 11.9062 65.6987 12.5967V20H62.9917V12.8735C62.9917 12.354 62.9165 11.9473 62.7661 11.6533C62.6226 11.3594 62.4141 11.1543 62.1406 11.0381C61.8672 10.915 61.5391 10.8535 61.1562 10.8535C60.7324 10.8535 60.3667 10.939 60.0591 11.1099C59.7583 11.2739 59.5088 11.5029 59.3105 11.7969C59.1191 12.0908 58.9756 12.4292 58.8799 12.812C58.791 13.1948 58.7466 13.6084 58.7466 14.0527ZM65.4937 13.5503L64.376 13.7554C64.3828 13.0581 64.4785 12.4053 64.6631 11.7969C64.8477 11.1816 65.1177 10.645 65.4731 10.187C65.8354 9.72217 66.2832 9.35986 66.8164 9.1001C67.3564 8.8335 67.9785 8.7002 68.6826 8.7002C69.2295 8.7002 69.7217 8.77881 70.1592 8.93604C70.6035 9.08643 70.9829 9.3291 71.2974 9.66406C71.6118 9.99219 71.8511 10.4194 72.0151 10.9458C72.186 11.4722 72.2715 12.1147 72.2715 12.8735V20H69.5439V12.8633C69.5439 12.3232 69.4688 11.9097 69.3184 11.6226C69.1748 11.3354 68.9663 11.1372 68.6929 11.0278C68.4194 10.9116 68.0981 10.8535 67.729 10.8535C67.353 10.8535 67.0249 10.9253 66.7446 11.0688C66.4712 11.2056 66.2388 11.397 66.0474 11.6431C65.8628 11.8892 65.7227 12.1763 65.627 12.5044C65.5381 12.8257 65.4937 13.1743 65.4937 13.5503ZM81.3154 5.07031V20H78.5059V5.07031H81.3154ZM85.9502 5.07031V7.29541H73.9224V5.07031H85.9502ZM89.6108 11.1714V20H86.9038V8.90527H89.4673L89.6108 11.1714ZM92.9844 8.8335L92.9434 11.356C92.793 11.3286 92.6221 11.3081 92.4307 11.2944C92.2461 11.2808 92.0718 11.2739 91.9077 11.2739C91.4907 11.2739 91.125 11.332 90.8105 11.4482C90.4961 11.5576 90.2329 11.7183 90.021 11.9302C89.8159 12.1421 89.6587 12.4019 89.5493 12.7095C89.4399 13.0103 89.3784 13.3521 89.3647 13.7349L88.7803 13.6631C88.7803 12.959 88.8521 12.3062 88.9956 11.7046C89.1392 11.103 89.3477 10.5767 89.6211 10.1255C89.8945 9.67432 90.2363 9.32568 90.6465 9.07959C91.0635 8.82666 91.542 8.7002 92.082 8.7002C92.2324 8.7002 92.3931 8.71387 92.564 8.74121C92.7417 8.76172 92.8818 8.79248 92.9844 8.8335ZM100.234 17.6416V12.5249C100.234 12.1489 100.169 11.8242 100.039 11.5508C99.9092 11.2773 99.7109 11.0654 99.4443 10.915C99.1777 10.7646 98.8394 10.6895 98.4292 10.6895C98.0669 10.6895 97.749 10.751 97.4756 10.874C97.209 10.9971 97.0039 11.1714 96.8604 11.397C96.7168 11.6157 96.645 11.8687 96.645 12.1558H93.9277C93.9277 11.6978 94.0371 11.2637 94.2559 10.8535C94.4746 10.4365 94.7856 10.0674 95.189 9.74609C95.5991 9.41797 96.0879 9.16162 96.6553 8.97705C97.2295 8.79248 97.8721 8.7002 98.583 8.7002C99.4238 8.7002 100.172 8.84375 100.829 9.13086C101.492 9.41113 102.011 9.83496 102.387 10.4023C102.77 10.9697 102.961 11.6841 102.961 12.5454V17.3853C102.961 17.939 102.996 18.4141 103.064 18.8105C103.139 19.2002 103.249 19.5386 103.392 19.8257V20H100.634C100.504 19.7197 100.405 19.3643 100.336 18.9336C100.268 18.4961 100.234 18.0654 100.234 17.6416ZM100.613 13.2427L100.634 14.8525H98.9214C98.4976 14.8525 98.125 14.897 97.8037 14.9858C97.4824 15.0679 97.2192 15.1909 97.0142 15.355C96.8091 15.5122 96.6553 15.7036 96.5527 15.9292C96.4502 16.1479 96.3989 16.3975 96.3989 16.6777C96.3989 16.9512 96.4604 17.1973 96.5835 17.416C96.7134 17.6348 96.8979 17.8091 97.1372 17.939C97.3833 18.062 97.6704 18.1235 97.9985 18.1235C98.4771 18.1235 98.894 18.0278 99.2495 17.8364C99.605 17.6382 99.8818 17.3989 100.08 17.1187C100.278 16.8384 100.384 16.5718 100.398 16.3188L101.177 17.4878C101.082 17.7681 100.938 18.0654 100.747 18.3799C100.555 18.6943 100.309 18.9883 100.008 19.2617C99.7075 19.5352 99.3452 19.7607 98.9214 19.9385C98.4976 20.1162 98.0054 20.2051 97.4448 20.2051C96.7271 20.2051 96.0845 20.0615 95.5171 19.7744C94.9497 19.4873 94.502 19.0942 94.1738 18.5952C93.8457 18.0962 93.6816 17.5288 93.6816 16.8931C93.6816 16.3052 93.791 15.7856 94.0098 15.3345C94.2285 14.8833 94.5532 14.5039 94.9839 14.1963C95.4146 13.8818 95.9478 13.646 96.5835 13.4888C97.2261 13.3247 97.9609 13.2427 98.7881 13.2427H100.613ZM109.955 18.0723C110.337 18.0723 110.679 17.9971 110.98 17.8467C111.281 17.6963 111.52 17.4844 111.698 17.2109C111.882 16.9375 111.981 16.6196 111.995 16.2573H114.548C114.535 17.0093 114.323 17.6826 113.913 18.2773C113.502 18.8721 112.956 19.3438 112.272 19.6924C111.595 20.0342 110.836 20.2051 109.996 20.2051C109.141 20.2051 108.396 20.0615 107.76 19.7744C107.125 19.4873 106.595 19.0874 106.171 18.5747C105.754 18.062 105.439 17.4673 105.228 16.7905C105.022 16.1138 104.92 15.3892 104.92 14.6167V14.2886C104.92 13.5161 105.022 12.7915 105.228 12.1147C105.439 11.438 105.754 10.8433 106.171 10.3306C106.595 9.81787 107.125 9.41797 107.76 9.13086C108.396 8.84375 109.138 8.7002 109.985 8.7002C110.881 8.7002 111.667 8.87451 112.344 9.22314C113.027 9.57178 113.561 10.064 113.943 10.6997C114.333 11.3354 114.535 12.084 114.548 12.9453H111.995C111.981 12.5488 111.893 12.1934 111.729 11.8789C111.564 11.5645 111.332 11.3115 111.031 11.1201C110.73 10.9287 110.365 10.833 109.934 10.833C109.476 10.833 109.093 10.9287 108.786 11.1201C108.485 11.3115 108.249 11.5747 108.078 11.9097C107.914 12.2378 107.798 12.6069 107.729 13.0171C107.668 13.4204 107.637 13.8442 107.637 14.2886V14.6167C107.637 15.0679 107.668 15.4985 107.729 15.9087C107.798 16.3188 107.914 16.688 108.078 17.0161C108.249 17.3374 108.485 17.5938 108.786 17.7852C109.093 17.9766 109.483 18.0723 109.955 18.0723ZM119.06 4.23975V20H116.353V4.23975H119.06ZM126.012 8.90527L121.183 14.3296L118.568 16.9854L117.707 14.8833L119.727 12.3403L122.741 8.90527H126.012ZM123.244 20L119.809 14.832L121.613 13.0786L126.381 20H123.244Z" fill="#FF5722"/>
</svg>
